<svg width="130" height="28" viewBox="0 0 130 28" fill="none" xmlns="http://www.w3.org/2000/svg">
<path fill-rule="evenodd" clip-rule="evenodd" d="M122.205 12.833C119.191 12.833 116.895 14.9612 116.895 17.4122C116.895 19.8632 119.191 21.9914 122.205 21.9914L122.205 21.9914C122.711 21.992 123.215 21.9294 123.708 21.8047C123.811 21.7786 123.919 21.7967 124.01 21.8551L125.436 22.7719V21.2796C125.436 21.1346 125.503 20.9992 125.615 20.9181C126.796 20.063 127.515 18.7967 127.515 17.4122C127.515 14.9612 125.218 12.833 122.205 12.833ZM116.081 17.4122C116.081 14.3241 118.902 11.9608 122.205 11.9608C125.507 11.9608 128.328 14.3241 128.328 17.4122C128.328 19.0645 127.508 20.5215 126.249 21.5062V23.542C126.249 23.6991 126.17 23.8441 126.043 23.9215C125.915 23.9989 125.759 23.9968 125.633 23.916L123.731 22.6928C123.229 22.807 122.717 22.8643 122.204 22.8636L122.205 22.4275V22.8636C122.204 22.8636 122.204 22.8636 122.204 22.8636C118.902 22.8634 116.081 20.5002 116.081 17.4122Z" fill="#FFD600"/>
<path fill-rule="evenodd" clip-rule="evenodd" d="M114.409 6.14603C110.554 6.14603 107.54 9.005 107.54 12.397C107.54 14.0769 108.27 15.6139 109.48 16.7485C109.568 16.8313 109.619 16.951 109.619 17.0768V19.4285L111.485 18.2285C111.588 18.1624 111.712 18.1483 111.826 18.19C112.657 18.4952 113.53 18.6499 114.408 18.6479L114.409 18.6479C115.169 18.6479 115.901 18.5353 116.581 18.3279C116.797 18.2621 117.022 18.3966 117.084 18.6283C117.145 18.86 117.02 19.1011 116.804 19.1669C116.05 19.3964 115.244 19.52 114.41 19.5201C113.505 19.5222 112.605 19.3734 111.743 19.0793L109.421 20.5725C109.295 20.6533 109.139 20.6554 109.011 20.578C108.884 20.5006 108.805 20.3556 108.805 20.1985V17.2713C107.524 16.0059 106.726 14.2938 106.726 12.397C106.726 8.40197 110.227 5.2738 114.409 5.2738C118.502 5.2738 121.937 8.26646 122.091 12.1388C122.091 12.145 122.092 12.1512 122.092 12.1573V12.417C122.092 12.6579 121.909 12.8531 121.685 12.8531C121.46 12.8531 121.278 12.6579 121.278 12.417V12.1668C121.142 8.8769 118.175 6.14603 114.409 6.14603Z" fill="#FFD600"/>
<path d="M12.1903 24.7902H10.1732V15.3239H2.00249V24.7902H0V4.33728H2.00249V13.4902H10.1732V4.33728H12.1903V24.7902Z" fill="#001966"/>
<path d="M30.1689 24.7902H28.0202L26.2224 18.9443H18.6801L16.9115 24.7902H14.7629L21.1065 4.33728H23.8252L30.1689 24.7902ZM25.6523 17.0479L22.4513 6.50012L19.2502 17.0479H25.6523Z" fill="#001966"/>
<path d="M37.7696 4.33728H39.7867V22.9565H43.587V4.33728H45.5895V24.7902H31.9667V4.33728H33.9692V22.9565H37.7696V4.33728Z" fill="#001966"/>
<path d="M58.9243 26.3844C55.8909 26.3844 53.4662 25.4108 51.6501 23.4635C49.8341 21.5376 48.926 18.9591 48.926 15.7279C48.926 11.705 50.1534 8.20634 52.608 5.23194C55.1824 2.10776 58.3156 0.545662 62.0076 0.545662C64.0233 0.545662 65.7096 1.08063 67.0666 2.15055C68.6033 3.34887 69.3716 5.00726 69.3716 7.12572C69.3716 8.62361 68.8528 9.88613 67.815 10.9133C66.7773 11.919 65.5599 12.4219 64.1629 12.4219C63.205 12.4219 62.3569 12.1437 61.6185 11.5873C60.8202 10.9454 60.4211 10.1108 60.4211 9.08368C60.4211 7.90676 60.6506 7.3183 61.1096 7.3183C61.4688 7.3183 61.6484 7.48949 61.6484 7.83187C61.6484 7.96026 61.6185 8.15285 61.5586 8.40963C61.4987 8.66641 61.4688 8.8697 61.4688 9.01949C61.4688 9.76844 61.7282 10.3355 62.2471 10.7207C62.766 11.1058 63.4046 11.2984 64.1629 11.2984C65.3404 11.2984 66.3282 10.9133 67.1265 10.1429C67.9447 9.32977 68.3538 8.32403 68.3538 7.12572C68.3538 5.34964 67.7053 3.95873 66.4081 2.953C65.2306 2.07566 63.7638 1.63699 62.0076 1.63699C58.6948 1.63699 55.851 3.01719 53.4761 5.77761C51.1412 8.49522 49.9738 11.6622 49.9738 15.2786C49.9738 18.1888 50.792 20.5854 52.4284 22.4685C54.0649 24.3515 56.2401 25.2931 58.9543 25.2931C60.431 25.2931 61.8081 25.0042 63.0853 24.4264C64.6619 23.7417 65.7295 22.7895 66.2883 21.5697C66.6675 20.7138 66.9768 20.2858 67.2163 20.2858C67.5755 20.2858 67.7551 20.4677 67.7551 20.8315C67.7551 21.1311 67.4658 21.7195 66.887 22.5969C65.1907 25.1219 62.5365 26.3844 58.9243 26.3844Z" fill="#FFD600"/>
<path d="M77.2555 24.0092C75.3796 24.0092 74.4416 23.1211 74.4416 21.3451C74.4416 20.7031 74.5714 19.9541 74.8308 19.0982C75.1102 18.2423 75.4195 17.3649 75.7588 16.4662C76.118 15.5674 76.4174 14.7329 76.6568 13.9626C76.6968 13.7914 76.7267 13.6309 76.7466 13.4811C76.7666 13.3099 76.7766 13.1601 76.7766 13.0317C76.7766 12.1972 76.3974 11.7799 75.639 11.7799C73.6434 11.7799 71.3583 14.9576 68.7839 21.313C68.7041 21.5483 68.5844 21.8479 68.4247 22.2117C68.285 22.5541 68.1154 22.9606 67.9158 23.4314C67.816 23.6026 67.6963 23.6882 67.5566 23.6882C67.1774 23.6882 66.9878 23.5063 66.9878 23.1425C66.9878 23.0997 67.0277 22.9392 67.1076 22.6611C67.1674 22.3829 67.2672 21.987 67.4069 21.4734C67.7462 20.3179 68.1753 18.8735 68.6941 17.1402C69.233 15.407 69.8616 13.3955 70.58 11.1058C70.2607 10.9775 69.9614 10.7635 69.682 10.4639C69.4026 10.1643 69.2629 9.86473 69.2629 9.56515C69.2629 9.22277 69.4325 9.05159 69.7718 9.05159C69.9115 9.05159 70.0711 9.16928 70.2507 9.40466C70.3505 9.57585 70.5601 9.81123 70.8794 10.1108C71.3384 8.8483 71.6976 7.89606 71.957 7.25411C72.2165 6.59075 72.3562 6.22698 72.3761 6.16278C72.6755 5.41383 72.9748 4.72908 73.2742 4.10852C73.5735 3.46656 73.8829 2.8995 74.2022 2.40734C75.2 0.802445 76.1479 0 77.046 0C77.6048 0 78.0139 0.28888 78.2733 0.866641C78.5128 1.31601 78.6326 1.86167 78.6326 2.50363C78.6326 3.42377 78.423 4.3974 78.0039 5.42453C77.3653 6.96523 76.4772 8.30264 75.3397 9.43676C74.0226 10.6993 72.7653 11.3198 71.5679 11.2984C71.2885 12.0902 71.0191 12.8926 70.7596 13.7058C70.5002 14.5189 70.2507 15.3428 70.0113 16.1773C71.987 12.5182 73.8729 10.6886 75.669 10.6886C77.1458 10.6886 77.8842 11.4161 77.8842 12.8712C77.8842 13.6844 77.6646 14.6687 77.2256 15.8242C77.1059 16.1666 76.9063 16.6695 76.6269 17.3328C76.3675 17.9962 76.118 18.6809 75.8785 19.3871C75.659 20.0932 75.5492 20.6817 75.5492 21.1525C75.5492 22.3722 76.1479 22.982 77.3453 22.982C78.2833 22.982 79.0616 22.7146 79.6803 22.1796C80.2989 21.6232 80.8777 20.885 81.4165 19.9648C81.5762 19.6653 81.6959 19.4513 81.7757 19.3229C81.8755 19.1945 82.0252 19.1303 82.2248 19.1303C82.4443 19.1303 82.554 19.2694 82.554 19.5476C82.554 19.7402 82.5141 19.9113 82.4343 20.0611C81.7358 21.4306 80.9176 22.4364 79.9796 23.0783C79.0417 23.6989 78.1336 24.0092 77.2555 24.0092ZM71.957 10.2071C72.9349 9.99312 73.8729 9.38326 74.7709 8.37753C75.5892 7.50019 76.2677 6.46236 76.8065 5.26404C77.2655 4.17272 77.495 3.20978 77.495 2.37524C77.495 1.58349 77.3054 1.18762 76.9263 1.18762C76.4473 1.18762 75.8386 1.80818 75.1002 3.04929C74.2022 4.54719 73.1544 6.93313 71.957 10.2071Z" fill="#FFD600"/>
<path d="M91.8334 23.945C91.095 23.945 90.4764 23.7096 89.9775 23.2388C89.4785 22.7467 89.269 22.0405 89.3488 21.1204C88.1315 22.982 86.6646 23.9129 84.9484 23.9129C83.8508 23.9129 83.0325 23.4528 82.4937 22.5327C82.0547 21.8051 81.8351 20.8208 81.8351 19.5797C81.8351 19.3443 81.8451 19.1089 81.8651 18.8735C81.885 18.6167 81.915 18.3707 81.9549 18.1353C82.0946 17.2793 82.364 16.4555 82.7631 15.6637C83.1622 14.8506 83.6811 14.0481 84.3197 13.2564C85.7566 11.5231 87.2434 10.6565 88.7801 10.6565C89.5983 10.6565 90.2768 10.9133 90.8156 11.4268C91.3545 11.919 91.6239 12.6144 91.6239 13.5132C91.6239 13.877 91.5341 14.23 91.3545 14.5724C91.7736 14.5938 91.9432 14.7971 91.8634 15.1823L90.9054 18.1032C90.5861 19.0661 90.4265 19.9434 90.4265 20.7352C90.4265 21.4627 90.5662 22.0298 90.8456 22.4364C91.1449 22.8429 91.5441 23.0462 92.043 23.0462C92.3224 23.0462 92.6317 22.9606 92.971 22.7895C93.3102 22.6183 93.6994 22.3294 94.1384 21.9228C94.4378 21.6446 94.7172 21.3344 94.9766 20.992C95.256 20.6496 95.4955 20.3072 95.695 19.9648C95.8148 19.7723 95.9445 19.5904 96.0842 19.4192C96.2239 19.2266 96.3636 19.1303 96.5033 19.1303C96.7428 19.1303 96.8625 19.2694 96.8625 19.5476C96.8625 19.6546 96.8425 19.7616 96.8026 19.8685C96.7827 19.9541 96.7527 20.0183 96.7128 20.0611C96.4534 20.5105 96.164 20.9492 95.8447 21.3771C95.5254 21.8051 95.1861 22.201 94.8269 22.5648C94.348 23.0355 93.849 23.3886 93.3302 23.624C92.8113 23.838 92.3124 23.945 91.8334 23.945ZM82.8529 19.7402C82.8529 21.7944 83.5913 22.8216 85.0681 22.8216C86.3254 22.8216 87.413 22.1796 88.331 20.8957C88.6104 20.4891 88.8998 19.9755 89.1991 19.355C89.4985 18.7344 89.7879 18.0069 90.0673 17.1723C90.1471 16.9583 90.2269 16.7123 90.3067 16.4341C90.4065 16.1345 90.5263 15.8028 90.666 15.4391C90.2668 15.76 89.8577 15.9205 89.4386 15.9205C88.7202 15.9205 88.361 15.7065 88.361 15.2786C88.361 14.9148 88.5306 14.7329 88.8699 14.7329C88.9297 14.7329 89.0096 14.7543 89.1093 14.7971C89.2291 14.8185 89.3189 14.8292 89.3787 14.8292C89.6781 14.8292 89.9575 14.6901 90.2169 14.4119C90.4764 14.1337 90.6061 13.8342 90.6061 13.5132C90.6061 12.3363 89.9874 11.7478 88.7501 11.7478C87.5128 11.7478 86.2755 12.5182 85.0382 14.0588C83.8607 15.4712 83.1722 16.8942 82.9727 18.3279C82.9327 18.5632 82.9028 18.7986 82.8829 19.034C82.8629 19.2694 82.8529 19.5048 82.8529 19.7402Z" fill="#FFD600"/>
<path d="M98.2264 24.1376C96.6898 24.1376 95.9214 22.8109 95.9214 20.1574C95.9214 17.932 96.3704 15.2037 97.2685 11.9725H96.3106C95.9913 11.9725 95.8316 11.7906 95.8316 11.4268C95.8316 11.063 95.9913 10.8812 96.3106 10.8812H97.5978C97.8572 10.0466 98.1266 9.26557 98.406 8.53802C98.6854 7.81047 98.9748 7.14711 99.2741 6.54796C100.172 4.68628 101.05 3.75544 101.908 3.75544C102.587 3.75544 102.926 4.33321 102.926 5.48873C102.926 6.10928 102.826 6.77264 102.627 7.47879C102.487 7.97096 102.328 8.50592 102.148 9.08368C101.968 9.64005 101.759 10.2392 101.519 10.8812H102.986C103.325 10.8812 103.495 11.063 103.495 11.4268C103.495 11.7906 103.325 11.9725 102.986 11.9725H101.04C100.023 14.4119 98.6754 16.8514 96.9991 19.2908C96.9791 19.462 96.9691 19.6332 96.9691 19.8044C96.9691 19.9541 96.9691 20.1039 96.9691 20.2537C96.9691 22.1582 97.4681 23.1104 98.4659 23.1104C99.2442 23.1104 99.9327 22.8109 100.531 22.2117C101.15 21.6125 101.709 20.8636 102.208 19.9648C102.407 19.6011 102.577 19.355 102.717 19.2266C102.856 19.0982 102.966 19.034 103.046 19.034C103.285 19.034 103.405 19.1945 103.405 19.5155C103.405 19.5583 103.375 19.6653 103.315 19.8365C103.275 19.9862 103.236 20.0825 103.196 20.1253C102.617 21.3023 101.908 22.2652 101.07 23.0141C100.232 23.7631 99.2841 24.1376 98.2264 24.1376ZM98.7054 10.8812H100.352C100.671 10.1322 100.931 9.46886 101.13 8.8911C101.35 8.31334 101.519 7.82117 101.639 7.4146C101.799 6.77264 101.878 6.23768 101.878 5.80971C101.878 5.33894 101.789 5.10355 101.609 5.10355C101.29 5.10355 100.841 5.68131 100.262 6.83684C100.003 7.3718 99.7431 7.98166 99.4837 8.66641C99.2243 9.32977 98.9648 10.068 98.7054 10.8812ZM97.2386 17.1723C97.6976 16.3592 98.1466 15.5246 98.5856 14.6687C99.0247 13.7914 99.4538 12.8926 99.8728 11.9725H98.3761C98.1167 12.8284 97.8872 13.6951 97.6876 14.5724C97.508 15.4284 97.3583 16.295 97.2386 17.1723Z" fill="#FFD600"/>
</svg>
